<svg width="200" height="200" viewBox="0 0 200 200" fill="none" xmlns="http://www.w3.org/2000/svg">
<g clip-path="url(#clip0_2_3)">
<path d="M158.333 75.0001H116.667C105.62 75.0133 95.0296 79.4074 87.2185 87.2186C79.4073 95.0297 75.0132 105.62 75 116.667V158.333C75.0132 169.38 79.4073 179.97 87.2185 187.782C95.0296 195.593 105.62 199.987 116.667 200H158.333C169.38 199.987 179.97 195.593 187.781 187.782C195.593 179.97 199.987 169.38 200 158.333V116.667C199.987 105.62 195.593 95.0297 187.781 87.2186C179.97 79.4074 169.38 75.0133 158.333 75.0001ZM116.667 125C115.018 125 113.407 124.511 112.037 123.596C110.666 122.68 109.598 121.378 108.968 119.856C108.337 118.333 108.172 116.657 108.493 115.041C108.815 113.424 109.609 111.94 110.774 110.774C111.94 109.609 113.424 108.815 115.041 108.494C116.657 108.172 118.333 108.337 119.856 108.968C121.378 109.598 122.68 110.667 123.596 112.037C124.511 113.407 125 115.019 125 116.667C125 118.877 124.122 120.996 122.559 122.559C120.996 124.122 118.877 125 116.667 125ZM158.333 166.667C156.685 166.667 155.074 166.178 153.704 165.262C152.333 164.347 151.265 163.045 150.634 161.522C150.004 160 149.839 158.324 150.16 156.708C150.482 155.091 151.275 153.606 152.441 152.441C153.606 151.275 155.091 150.482 156.708 150.16C158.324 149.839 160 150.004 161.522 150.634C163.045 151.265 164.347 152.333 165.262 153.704C166.178 155.074 166.667 156.685 166.667 158.333C166.667 160.544 165.789 162.663 164.226 164.226C162.663 165.789 160.543 166.667 158.333 166.667ZM130 41.6667L100.575 12.1834C92.7552 4.38685 82.1632 0.00875854 71.1208 0.00875854C60.0784 0.00875854 49.4865 4.38685 41.6667 12.1834L12.1833 41.6667C4.38172 49.4872 0.000396729 60.0827 0.000396729 71.1292C0.000396729 82.1757 4.38172 92.7712 12.1833 100.592L41.6667 130C46.3282 134.68 52.0434 138.175 58.3333 140.192V116.667C58.351 101.201 64.5025 86.3741 75.4383 75.4383C86.3741 64.5025 101.201 58.351 116.667 58.3334H140.225C138.198 52.0401 134.692 46.3247 130 41.6667ZM41.6667 83.3334C40.0185 83.3334 38.4073 82.8446 37.0369 81.929C35.6665 81.0133 34.5984 79.7118 33.9677 78.1891C33.3369 76.6664 33.1719 74.9908 33.4935 73.3743C33.815 71.7578 34.6087 70.2729 35.7741 69.1075C36.9395 67.9421 38.4244 67.1484 40.0409 66.8268C41.6574 66.5053 43.333 66.6703 44.8557 67.3011C46.3784 67.9318 47.6799 68.9999 48.5956 70.3703C49.5112 71.7407 50 73.3519 50 75.0001C50 77.2102 49.122 79.3298 47.5592 80.8926C45.9964 82.4554 43.8768 83.3334 41.6667 83.3334ZM75 50.0001C73.3518 50.0001 71.7407 49.5113 70.3702 48.5956C68.9998 47.68 67.9317 46.3785 67.301 44.8557C66.6703 43.333 66.5052 41.6575 66.8268 40.041C67.1483 38.4245 67.942 36.9396 69.1074 35.7742C70.2729 34.6087 71.7577 33.815 73.3742 33.4935C74.9908 33.172 76.6663 33.337 78.189 33.9677C79.7117 34.5984 81.0132 35.6666 81.9289 37.037C82.8446 38.4074 83.3333 40.0185 83.3333 41.6667C83.3333 43.8769 82.4554 45.9965 80.8925 47.5593C79.3298 49.1221 77.2101 50.0001 75 50.0001Z" fill="#2A7D48"/>
</g>
<defs>
<clipPath id="clip0_2_3">
<rect width="200" height="200" fill="white"/>
</clipPath>
</defs>
</svg>
